<svg xmlns="http://www.w3.org/2000/svg" viewBox="0 0 1920 1080"><g id="EXPORT"><g id="firma-2" data-name="firma"><path d="M714.8,287.23q24.68,117.67,48.36,235.54t46.37,235.94q12.72,66.1,25.11,132.29c.9,4.78,6.67,7.49,11.07,6.28,5-1.38,7.19-6.27,6.29-11.07Q829.86,768,806.73,650.06T759.48,414.3q-13.5-66-27.32-131.85c-1-4.76-6.59-7.52-11.07-6.29-4.93,1.36-7.29,6.3-6.29,11.07Z"/><path d="M377,494.53q71-26.16,142.1-52.26t142.14-52.15q71.09-26,142.18-52l71.11-26L910.41,299c8.82-3.23,17.56-6.65,26.74-8.75q2.88-.66,5.79-1.17l2.72-.45c1.75-.29.3,0,0,0l1.94-.23a82.43,82.43,0,0,1,11.86-.45c1.71.07,3.41.23,5.11.41-2.33-.24.64.14,1.12.23.91.17,1.82.38,2.71.61s1.75.47,2.61.76c.42.14,2.52.92,1.42.47s1,.47,1.29.64c.86.44,1.69.92,2.5,1.44s1.74,1.4.49.26c.62.57,1.28,1.09,1.88,1.68s1,1.16,1.49,1.64c.89.77-.79-1.34-.23-.3.26.47.62.9.9,1.36.4.66.76,1.35,1.12,2,.14.28.68,1.63.24.49s.08.29.17.57a20.25,20.25,0,0,1,1.12,6.24c.1,9.86-5.31,20-9.71,29.12-17.4,36.24-39.92,69.73-64.39,101.53-.72.94-.52.68-1.6,2.06-.7.91-1.41,1.81-2.12,2.72-1.62,2.06-3.24,4.12-4.88,6.18q-4.75,6-9.58,11.9-9.52,11.69-19.26,23.19c-13.1,15.52-26.38,30.89-39.54,46.36-26.52,31.16-52.65,62.79-75.72,96.62Q748,638.79,740,651.8q-3.84,6.32-7.49,12.72c-3.24,5.69-6.91,11.58-6.09,18.39,1.51,12.62,14.4,15.56,25,13.72,4.72-.82,9.22-2.82,13.67-4.52q7.75-3,15.4-6.18A511.49,511.49,0,0,0,896,618.5q12.69-9.82,24.74-20.46c3.65-3.22,3.28-9.44,0-12.73-3.62-3.62-9.07-3.22-12.73,0a490.84,490.84,0,0,1-108.14,72.2c-9.38,4.6-19.47,9.18-28.6,12.91q-7.42,3-14.95,5.84c-2.2.82-4.39,1.7-6.65,2.33-1,.28-2,.45-3,.68,1.78-.4-.7,0-1.45.05-.54,0-2.8-.28-1.73,0,1.28.28-.31-.07-.5-.21-1-.73,1.37.81.33.15-.84-.53.51.48.53.51-1-1.26.12.23.19.38-.49-1-.46,0,.12.29s-.82.74.29,0c.42-.3.87-1.82,1.21-2.46.55-1,1.12-2,1.69-3q1.93-3.43,3.93-6.82,7.59-12.95,15.89-25.44c22.41-33.87,47-64,73.34-95,26.12-30.81,52.85-61.12,77.76-92.92s48.22-65.06,66.58-101.16c9.71-19.1,23.34-42.7,12.21-64-7.78-14.89-25.39-19.73-41-19.61-18.77.15-35.91,6.45-53.29,12.79L832.2,308.47q-71.12,26-142.2,52-70.8,25.93-141.57,51.92t-141.53,52l-34.66,12.76c-4.56,1.68-7.65,6.1-6.28,11.07,1.2,4.39,6.48,8,11.07,6.28Z"/><path d="M1065.07,397.2c-12.3-3.17-25.48-.06-35.8,7.15a62.12,62.12,0,0,0-14.49,14.18,64.64,64.64,0,0,0-8.74,17.21c-4.49,12.61-5.6,26.28-6.22,39.55-.24,5.17-.47,10.34-.25,15.52a122.35,122.35,0,0,0,1.7,15.74,73.68,73.68,0,0,0,3.45,13.14,51.78,51.78,0,0,0,6.59,12.94,36.47,36.47,0,0,0,11.31,10.53,32.4,32.4,0,0,0,15.49,4.07,33.46,33.46,0,0,0,17.6-5c5.58-3.4,10-8,13.87-13.18,7.33-9.65,11.67-21.44,15.18-32.93a188.07,188.07,0,0,0,5.92-81.85c-.45-3.14-1-6.26-1.62-9.37l-17.36,4.78a477,477,0,0,0,27.79,84.14q4.92,11.29,10.42,22.31a9,9,0,0,0,12.31,3.23,9.21,9.21,0,0,0,3.23-12.31q-6.63-13.31-12.42-27l.9,2.15a465.56,465.56,0,0,1-20.57-59.93q-2.31-8.64-4.3-17.36a9.07,9.07,0,0,0-11.07-6.29c-4.91,1.59-7.28,6.12-6.29,11.07q1.11,5.56,1.87,11.17l-.32-2.39a178.84,178.84,0,0,1,0,47l.32-2.39a171.07,171.07,0,0,1-11.64,43.6l.91-2.15a71.58,71.58,0,0,1-9,15.76l1.41-1.82a44.07,44.07,0,0,1-7.63,7.75l1.82-1.41a30.42,30.42,0,0,1-6.34,3.75l2.15-.91a25.05,25.05,0,0,1-6.08,1.68l2.39-.32a24.7,24.7,0,0,1-6.37,0l2.39.32a23.35,23.35,0,0,1-5.76-1.54l2.15.91a23.49,23.49,0,0,1-5.16-3l1.82,1.41a28.47,28.47,0,0,1-4.83-4.92l1.41,1.82a41.65,41.65,0,0,1-5.18-9.14l.9,2.15a75.06,75.06,0,0,1-4.8-18.71l.32,2.39a110.48,110.48,0,0,1-.89-18.18c.27-8.43.67-16.88,1.78-25.25l-.33,2.39a90.62,90.62,0,0,1,5.83-22.75l-.91,2.15a55.49,55.49,0,0,1,6.87-12l-1.4,1.82a51.22,51.22,0,0,1,9-9l-1.82,1.4a45.69,45.69,0,0,1,9.85-5.78l-2.15.91a37.14,37.14,0,0,1,9-2.48l-2.4.32a32.39,32.39,0,0,1,8.23,0l-2.39-.32a31.51,31.51,0,0,1,3.58.72c4.55,1.17,10-1.5,11.07-6.29s-1.41-9.81-6.29-11.07Z"/><path d="M1149.62,392.54c9.26,22.86,18.29,45.81,27.78,68.57,4,9.58,8.86,19.45,18.14,25a27,27,0,0,0,27.63,0c7.26-4.41,12.55-11.72,16.07-19.33a87.13,87.13,0,0,0,7.46-27.18c1.33-11.79,2-23.68,2.73-35.52q1.1-18.58,1.56-37.21,1-41.42-1.19-82.82l-17.68,2.39q5.45,38.49,12.56,76.71,7.08,38,15.82,75.72,8.77,37.86,19.19,75.32t22.46,74.41q12,37,25.7,73.36,1.67,4.44,3.35,8.87c1.67,4.39,6.14,7.88,11.08,6.29,4.27-1.39,8.08-6.36,6.28-11.07q-13.83-36.33-26.08-73.22-12.2-36.72-22.76-73.94-10.63-37.38-19.61-75.21t-16.31-76q-7.32-38.16-13-76.63-.69-4.69-1.35-9.39c-.28-2-2.43-4.48-4.14-5.38a9.25,9.25,0,0,0-5.74-1.07c-4.2.56-8,4.35-7.8,8.84A1069.09,1069.09,0,0,1,1230,425.33q-.33,4.16-.7,8.33c-.13,1.51-.26,3-.4,4.54-.08.77-.64,4.15-.07.92a100.63,100.63,0,0,1-2.44,11.25c-.56,1.87-1.18,3.72-1.89,5.55l-.46,1.17c-.69,1.75.9-2,.12-.29-.49,1.05-1,2.1-1.5,3.13a49.62,49.62,0,0,1-2.66,4.58c-.43.65-.88,1.28-1.33,1.91-1,1.43,1.42-1.7.29-.39-.39.46-.77.91-1.17,1.35s-1,1.06-1.52,1.56c-.67.62-3,2.15-.44.49-.63.41-1.22.87-1.87,1.26-.88.52-3.54,1.34-.54.42-.76.23-1.48.53-2.26.72l-.77.17c-1.6.38,2.45-.19.8-.09a22.26,22.26,0,0,1-2.45,0c-.35,0-1.8-.2-.07,0s-.16-.06-.52-.14c-.76-.17-2.06-.9-2.78-.84,1.11-.09,1.65.76.45.15-.39-.19-.77-.4-1.15-.63s-.87-.57-1.31-.85c-1.58-1,1.54,1.41.17.12-.76-.73-1.54-1.43-2.25-2.22-.28-.31-.69-1-1-1.22l.74,1c-.22-.29-.43-.58-.64-.88-.58-.82-1.13-1.66-1.65-2.53a62.44,62.44,0,0,1-3.22-6.18l-.47-1c-.25-.57-1.08-3-.19-.4-.48-1.4-1.13-2.77-1.69-4.15l-3.73-9.2-7.45-18.4L1167,387.76c-.91-2.26-2-4.1-4.14-5.38a9.17,9.17,0,0,0-6.93-.91c-4.2,1.36-8.18,6.4-6.29,11.07Z"/><path d="M1374,291.65l-19.94-14.48a9,9,0,0,0-6.93-.91,9.19,9.19,0,0,0-5.38,4.14,224.27,224.27,0,0,0-23.33,65.28,205.6,205.6,0,0,0-3.87,34.71,83,83,0,0,0,1.15,14.07A53.69,53.69,0,0,0,1318.8,406a45.51,45.51,0,0,0,7.59,13.05,29.24,29.24,0,0,0,11.81,8.13c4.8,1.91,10.08,2,15.1,1.12s9.68-3.62,13.66-6.85a43.49,43.49,0,0,0,9-10.58,75.65,75.65,0,0,0,6.55-13.56,119.35,119.35,0,0,0,4-13.35q2.3-8.88,4.22-17.85a477.08,477.08,0,0,0,10-73.35q.25-4.46.42-8.92l-17.68,2.39,10.81,49.58L1405,385.17l6.12,28.09c1,4.61,6.62,7.73,11.07,6.29a9.22,9.22,0,0,0,6.29-11.08l-10.81-49.57-10.75-49.34-6.12-28.08a9,9,0,0,0-4.13-5.38,9.33,9.33,0,0,0-5.74-1.07,9.05,9.05,0,0,0-7.81,8.84q-.84,22.2-3.81,44.23l.32-2.4a462.1,462.1,0,0,1-11.56,57.7,89.48,89.48,0,0,1-3.85,11.41l.91-2.15a57.69,57.69,0,0,1-7,12.43l1.4-1.83a32.56,32.56,0,0,1-5.74,5.87l1.82-1.4a23.76,23.76,0,0,1-4.91,2.9l2.15-.91a19.89,19.89,0,0,1-4.9,1.34l2.39-.32a20.81,20.81,0,0,1-5.29,0l2.39.32a20.12,20.12,0,0,1-4.69-1.28l2.15.91a20.34,20.34,0,0,1-4.26-2.52l1.82,1.41a23.68,23.68,0,0,1-4.11-4.2l1.4,1.83a34.9,34.9,0,0,1-4.12-7.22l.91,2.15a55.17,55.17,0,0,1-3.65-13.89l.32,2.4c-1.37-10.4-.23-21.07,1.15-31.41l-.32,2.4a218,218,0,0,1,15-55.16l-.91,2.15q4.14-9.78,9.19-19.12L1345,292.71l19.93,14.49c1.78,1.29,4.9,1.46,6.94.9a9,9,0,0,0,6.28-11.07,10.35,10.35,0,0,0-4.13-5.38Z"/></g></g></svg>